# xmcd
#
# Track frame offsets: 
#        150
#        14446
#        29551
#        42407
#        54770
#        70240
#        85729
#        101100
#        113017
#        123332
#        141890
#        155950
#
# Disc length: 2262 seconds
#
# Revision: 0
# Processed by: cddbd v1.5.2PL0 Copyright (c) Steve Scherf et al.
# Submitted via: ExactAudioCopy v0.99pb4
#
DISCID=a308d40c
DTITLE=Various Artist - Bose Private Performances: Dancin' Cowboys
DYEAR=1900
DGENRE=Country
TTITLE0=Gary Morris - Roll Back the Rug and Dance
TTITLE1=The Bellamy Brothers - Dancin' Cowboys
TTITLE2=Crystal Gayle - You Bring Out the Lover In Me
TTITLE3=Conway Twitty - I Think I'm In Love
TTITLE4=Emmylou Harris - (You Never Can Tell) C'est La Vie
TTITLE5=Kieran Kane - Gonna Have a Party
TTITLE6=Karen Brooks - Country Girl
TTITLE7=Sonny Curtis - Good Ol' Girls
TTITLE8=Gail Davies - I'll Be There (If You Ever Want Me)
TTITLE9=Johnny Lee - Cherokee Fiddle
TTITLE10=John Anderson - Haunted House
TTITLE11=Mel Tillis - Stay a Little Longer
EXTD=
EXTT0=
EXTT1=
EXTT2=
EXTT3=
EXTT4=
EXTT5=
EXTT6=
EXTT7=
EXTT8=
EXTT9=
EXTT10=
EXTT11=
PLAYORDER=
